<svg version="1.0" xmlns="http://www.w3.org/2000/svg" width="320" height="320" viewBox="0 0 240 240"><path d="M109.5 4.7c-25.2 4-48.3 17.1-63.5 36C32 58.1 25.4 75.6 24.3 98c-.7 15 .5 23.9 5.1 37.3 9.4 27.6 32.9 51 60.7 60.6 13.6 4.7 19.2 5.6 34.9 5.5 16.7-.1 27.9-2.5 41.6-8.9l7.9-3.6 7 3.6c9.1 4.7 16.3 6.5 25.6 6.5 6.6 0 7.8-.3 9.7-2.3 3.1-3.3 2.7-5.9-1.8-12.6-4-5.9-7.1-13.3-8.4-20.2-.6-3.2-.1-4.6 3.5-10.3 5.2-8.3 9.1-17.8 11.9-29.2 2-7.9 2.2-10.6 1.7-24.4-.4-12.8-.9-17-3.1-24.3-10.1-34.1-36.1-59.1-71.1-68.7-6.1-1.7-11.4-2.3-22.5-2.5-8-.2-15.8-.1-17.5.2zm39 8.2c17.5 4.6 36.5 17 48.4 31.3 7 8.4 15 23.8 18.2 34.8 3 10.7 3.7 29 1.5 39.9-2.4 11.6-6.7 23.1-12.1 31.6-3 4.9-4.5 8.4-4.5 10.7 0 7.8 5 21.1 10.4 27.6 1.5 1.6 2.6 3.3 2.6 3.7 0 1.3-15.3-.2-20.9-2.1-3-1-8.1-3.4-11.3-5.4l-5.9-3.5-8.8 4.3c-47.7 23.2-103.7 4.1-126.8-43.4-6-12.3-8.3-21.5-8.9-35.9-.5-9.7-.2-13.8 1.4-21.5 7.6-36.8 35.3-64.8 72.2-73.1 11.5-2.6 32.9-2.1 44.5 1z"/><path d="M66.3 88l.2 35.5 3.2 6.6c4.3 8.8 13 17 22.5 21.4 11.6 5.3 15 5.9 30.8 5.9 13 0 15.3-.3 22.5-2.7 17.2-5.7 28.8-16.5 32.9-30.6 1.3-4.5 1.6-11.3 1.6-38.5V52.5l-10.9 10.9-11 10.9-7.3-3.6c-9.5-4.8-17.3-6.7-27.3-6.7-11.3 0-18.3 1.6-27.8 6.4l-8.2 4.2-10.7-11.1-10.8-11 .3 35.5zm36.6 12.5c4.6 1.6 11.3 6.6 13.6 10.2 1.5 2.2 1.4 2.5-2.7 6.9-4.5 4.9-9.2 7.7-14.7 8.9l-3.4.7 2.3-3.6c2.9-4.8 3.1-12 .4-16.7-1.1-1.9-2.4-3.4-3-3.3-1.4.1-5.4 8.5-5.4 11.4 0 1.5 1.1 4.8 2.4 7.3 2.6 5.3 2.4 5.4-5.1 3.2-5.6-1.7-15.3-9.5-15.3-12.4 0-2.5 9-10.8 13.5-12.5 5.2-1.9 12.2-2 17.4-.1zm58.6.9c4.5 2.1 12.5 9.4 12.5 11.4 0 .5-1.5 2.6-3.4 4.8-3.7 4.3-10 7.9-16 9l-3.9.7 2.2-3.7c3-4.7 3.1-12.2.4-16.8-1-1.8-2.3-3.3-2.9-3.2-1.4.1-5.4 8.5-5.4 11.4 0 1.5 1.1 4.8 2.4 7.4l2.4 4.7-3.2-.7c-5.1-1.1-10.3-4.1-14.6-8.6-2.2-2.3-4-4.5-4-5 0-1.4 6.1-7.7 9.6-9.9 7.4-4.5 16.2-5.1 23.9-1.5zm-32.2 35.7L123 140l-6.2-2.9-6.3-2.9h25l-6.2 2.9z"/></svg>